HIERARCHY
ROOT Model
{
	OFFSET 0 0 0
	CHANNELS 6 Xposition Yposition Zposition Zrotation Xrotation Yrotation
	JOINT Model1
	{
		OFFSET 0 -2.25479 2.99384
		CHANNELS 3 Zrotation Xrotation Yrotation
		JOINT Model2
		{
			OFFSET 12.111 0 0
			CHANNELS 3 Zrotation Xrotation Yrotation
			JOINT Model3
			{
				OFFSET 11.5502 0 0
				CHANNELS 3 Zrotation Xrotation Yrotation
				JOINT Model4
				{
					OFFSET 11.781 0 0
					CHANNELS 3 Zrotation Xrotation Yrotation
					JOINT Model5
					{
						OFFSET 20.0601 0 0
						CHANNELS 3 Zrotation Xrotation Yrotation
						JOINT Model6
						{
							OFFSET 11.1962 0 0
							CHANNELS 3 Zrotation Xrotation Yrotation
							End Site
							{
								OFFSET 0 0 0
							}
						}
					}
					JOINT Model7
					{
						OFFSET 10.8223 0.417534 3.51114
						CHANNELS 3 Zrotation Xrotation Yrotation
						JOINT Model8
						{
							OFFSET -6.07944 0 0
							CHANNELS 3 Zrotation Xrotation Yrotation
							JOINT Model9
							{
								OFFSET -0.277405 10.39 -0.051239
								CHANNELS 3 Zrotation Xrotation Yrotation
								JOINT Model10
								{
									OFFSET -3.43909 -0.282043 1.86679
									CHANNELS 3 Zrotation Xrotation Yrotation
									JOINT Model11
									{
										OFFSET 13.0269 0 0
										CHANNELS 3 Zrotation Xrotation Yrotation
										JOINT Model12
										{
											OFFSET 10.8866 0 0
											CHANNELS 3 Zrotation Xrotation Yrotation
											JOINT Model13
											{
												OFFSET 16.7317 0 0
												CHANNELS 3 Zrotation Xrotation Yrotation
												JOINT Model14
												{
													OFFSET 11.8292 0 0
													CHANNELS 3 Zrotation Xrotation Yrotation
													JOINT Model15
													{
														OFFSET 4.82751 -3.73566 -0.836517
														CHANNELS 3 Zrotation Xrotation Yrotation
														JOINT Model16
														{
															OFFSET 3.75311 -0.0582886 -0.0186462
															CHANNELS 3 Zrotation Xrotation Yrotation
															JOINT Model17
															{
																OFFSET 2.88689 0.0192337 0.014801
																CHANNELS 3 Zrotation Xrotation Yrotation
																End Site
																{
																	OFFSET 0 0 0
																}
															}
														}
													}
													JOINT Model18
													{
														OFFSET 9.72197 -3.06458 0.23877
														CHANNELS 3 Zrotation Xrotation Yrotation
														JOINT Model19
														{
															OFFSET 4.61131 0 0
															CHANNELS 3 Zrotation Xrotation Yrotation
															JOINT Model20
															{
																OFFSET 2.8969 -7.62939e-006 0
																CHANNELS 3 Zrotation Xrotation Yrotation
																End Site
																{
																	OFFSET 0 0 0
																}
															}
														}
													}
													JOINT Model21
													{
														OFFSET 9.54431 -0.745064 0.588928
														CHANNELS 3 Zrotation Xrotation Yrotation
														JOINT Model22
														{
															OFFSET 5.33978 0 0
															CHANNELS 3 Zrotation Xrotation Yrotation
															JOINT Model23
															{
																OFFSET 3.03619 7.62939e-006 0
																CHANNELS 3 Zrotation Xrotation Yrotation
																End Site
																{
																	OFFSET 0 0 0
																}
															}
														}
													}
													JOINT Model24
													{
														OFFSET 9.47758 1.51286 0.485107
														CHANNELS 3 Zrotation Xrotation Yrotation
														JOINT Model25
														{
															OFFSET 4.96136 7.62939e-006 0
															CHANNELS 3 Zrotation Xrotation Yrotation
															JOINT Model26
															{
																OFFSET 2.51965 0 0
																CHANNELS 3 Zrotation Xrotation Yrotation
																End Site
																{
																	OFFSET 0 0 0
																}
															}
														}
													}
													JOINT Model27
													{
														OFFSET 9.34247 3.34117 -0.239288
														CHANNELS 3 Zrotation Xrotation Yrotation
														JOINT Model28
														{
															OFFSET 3.28259 2.28882e-005 0
															CHANNELS 3 Zrotation Xrotation Yrotation
															JOINT Model29
															{
																OFFSET 2.1292 0 0
																CHANNELS 3 Zrotation Xrotation Yrotation
																End Site
																{
																	OFFSET 0 0 0
																}
															}
														}
													}
												}
											}
										}
									}
								}
							}
						}
					}
					JOINT Model30
					{
						OFFSET 10.8223 0.4179 -3.51108
						CHANNELS 3 Zrotation Xrotation Yrotation
						JOINT Model31
						{
							OFFSET 6.07944 0 0
							CHANNELS 3 Zrotation Xrotation Yrotation
							JOINT Model32
							{
								OFFSET 0.277405 -10.39 0.051239
								CHANNELS 3 Zrotation Xrotation Yrotation
								JOINT Model33
								{
									OFFSET 3.43909 0.282043 -1.86679
									CHANNELS 3 Zrotation Xrotation Yrotation
									JOINT Model34
									{
										OFFSET -13.0269 0 0
										CHANNELS 3 Zrotation Xrotation Yrotation
										JOINT Model35
										{
											OFFSET -10.8866 0 0
											CHANNELS 3 Zrotation Xrotation Yrotation
											JOINT Model36
											{
												OFFSET -16.7317 0 0
												CHANNELS 3 Zrotation Xrotation Yrotation
												JOINT Model37
												{
													OFFSET -11.8292 0 0
													CHANNELS 3 Zrotation Xrotation Yrotation
													JOINT Model38
													{
														OFFSET -4.82751 3.73566 0.836517
														CHANNELS 3 Zrotation Xrotation Yrotation
														JOINT Model39
														{
															OFFSET -3.75311 0.0582886 0.0186462
															CHANNELS 3 Zrotation Xrotation Yrotation
															JOINT Model40
															{
																OFFSET -2.88687 -0.0192337 -0.014801
																CHANNELS 3 Zrotation Xrotation Yrotation
																End Site
																{
																	OFFSET 0 0 0
																}
															}
														}
													}
													JOINT Model41
													{
														OFFSET -9.72198 3.06459 -0.23877
														CHANNELS 3 Zrotation Xrotation Yrotation
														JOINT Model42
														{
															OFFSET -4.6113 0 0
															CHANNELS 3 Zrotation Xrotation Yrotation
															JOINT Model43
															{
																OFFSET -2.89691 0 0
																CHANNELS 3 Zrotation Xrotation Yrotation
																End Site
																{
																	OFFSET 0 0 0
																}
															}
														}
													}
													JOINT Model44
													{
														OFFSET -9.54431 0.745064 -0.588928
														CHANNELS 3 Zrotation Xrotation Yrotation
														JOINT Model45
														{
															OFFSET -5.33978 0 0
															CHANNELS 3 Zrotation Xrotation Yrotation
															JOINT Model46
															{
																OFFSET -3.03619 -1.52588e-005 0
																CHANNELS 3 Zrotation Xrotation Yrotation
																End Site
																{
																	OFFSET 0 0 0
																}
															}
														}
													}
													JOINT Model47
													{
														OFFSET -9.4776 -1.51286 -0.485107
														CHANNELS 3 Zrotation Xrotation Yrotation
														JOINT Model48
														{
															OFFSET -4.96136 -1.52588e-005 0
															CHANNELS 3 Zrotation Xrotation Yrotation
															JOINT Model49
															{
																OFFSET -2.51965 0 0
																CHANNELS 3 Zrotation Xrotation Yrotation
																End Site
																{
																	OFFSET 0 0 0
																}
															}
														}
													}
													JOINT Model50
													{
														OFFSET -9.34247 -3.34118 0.239288
														CHANNELS 3 Zrotation Xrotation Yrotation
														JOINT Model51
														{
															OFFSET -3.28259 -2.28882e-005 0
															CHANNELS 3 Zrotation Xrotation Yrotation
															JOINT Model52
															{
																OFFSET -2.12921 0 0
																CHANNELS 3 Zrotation Xrotation Yrotation
																End Site
																{
																	OFFSET 0 0 0
																}
															}
														}
													}
												}
											}
										}
									}
								}
							}
						}
					}
				}
			}
		}
	}
	JOINT Model53
	{
		OFFSET 4.38025 -2.14632 -1.11517
		CHANNELS 3 Zrotation Xrotation Yrotation
		JOINT Model54
		{
			OFFSET 0 0 4.94998
			CHANNELS 3 Zrotation Xrotation Yrotation
			JOINT Model55
			{
				OFFSET 18.5642 0 0
				CHANNELS 3 Zrotation Xrotation Yrotation
				JOINT Model56
				{
					OFFSET 21.2884 0 0
					CHANNELS 3 Zrotation Xrotation Yrotation
					JOINT Model57
					{
						OFFSET 30.261 0 0
						CHANNELS 3 Zrotation Xrotation Yrotation
						JOINT Model58
						{
							OFFSET 11.7259 0 0
							CHANNELS 3 Zrotation Xrotation Yrotation
							JOINT Model59
							{
								OFFSET 10.682 0 0
								CHANNELS 3 Zrotation Xrotation Yrotation
								End Site
								{
									OFFSET 0 0 0
								}
							}
						}
					}
				}
			}
		}
	}
	JOINT Model60
	{
		OFFSET -4.38025 -2.14632 -1.11517
		CHANNELS 3 Zrotation Xrotation Yrotation
		JOINT Model61
		{
			OFFSET 0 0 -4.94998
			CHANNELS 3 Zrotation Xrotation Yrotation
			JOINT Model62
			{
				OFFSET -18.5642 0 0
				CHANNELS 3 Zrotation Xrotation Yrotation
				JOINT Model63
				{
					OFFSET -21.2884 0 0
					CHANNELS 3 Zrotation Xrotation Yrotation
					JOINT Model64
					{
						OFFSET -30.261 0 0
						CHANNELS 3 Zrotation Xrotation Yrotation
						JOINT Model65
						{
							OFFSET -11.7259 0 0
							CHANNELS 3 Zrotation Xrotation Yrotation
							JOINT Model66
							{
								OFFSET -10.682 0 0
								CHANNELS 3 Zrotation Xrotation Yrotation
								End Site
								{
									OFFSET 0 0 0
								}
							}
						}
					}
				}
			}
		}
	}
}
MOTION
Frames: 4
Frame Time: 0.033333
-493.413 176.783 -565.988 80.9063 -41.3682 83.4799 -180 4.29621e-031 -90 1.02934 2.72669 -0.0103775 2.06267 5.45232 -0.0699759 2.06268 5.45276 -0.0699917 -1.89704 -9.74582 2.08792 12.3214 -8.97463 1.24545 120.092 75.5343 58.4939 -12.2232 -2.26671 1.51787 -167.277 84.4999 48.8109 -176.698 11.6419 12.4348 -1.08143e-005 36.3667 3.72959e-005 -12.2853 -1.53077 0.0900415 -9.35475e-008 -2.49762 -3.0958e-007 -2.59698 -0.116199 5.12295 -72.0648 39.0385 39.3397 33.3638 2.10362 14.835 0.588947 0.308273 6.35287 -99.6409 81.413 100.35 -0.018141 2.7792e-005 -0.117316 -0.124139 0.00241114 -0.799297 -79.8382 79.5773 80.5374 -0.000225813 -0.000220905 2.19748e-005 -0.000956276 0.000122919 -2.76182e-005 -66.7416 80.4058 67.2171 -0.000437177 1.59595e-005 -2.75392e-005 -0.000136664 -0.000109272 -5.49374e-005 -6.42159 81.2158 8.01779 -0.000218635 1.68963e-005 0.000211918 0.000901491 -0.000184818 -0.000218867 -59.9282 75.5373 58.5147 11.8411 18.4115 2.01214 -167.277 84.4999 48.8109 129.315 -10.5373 -17.3715 7.69227e-006 -1.44561 2.91134e-005 -50.0864 -10.7015 0.476028 -3.06159e-006 -16.7116 1.53584e-006 24.8064 -2.93244 -13.2772 -72.0648 39.0385 39.3397 33.3638 2.10361 14.835 0.588946 0.308273 6.35287 -99.6409 81.413 100.35 -0.0181409 3.01026e-005 -0.117315 -0.124139 0.00241117 -0.799296 -79.8382 79.5773 80.5374 -0.000260597 -0.000218528 2.3803e-005 -0.00095616 0.000123048 -2.70058e-005 -66.7416 80.4058 67.2171 -0.000437073 1.49083e-005 -2.70884e-005 -0.000136524 -0.000109247 -5.43269e-005 -6.42159 81.2158 8.01779 -0.000218491 1.95511e-005 0.000212499 0.000901685 -0.000191283 -0.000218293 0.000811311 0.56661 89.91 -20.1049 1.85288 -0.282803 3.5507e-007 3.02745 -1.03776e-009 31.8366 -1.98473 0.355505 5.51131e-009 -3.03691 3.02766e-008 -64.7355 4.49779 -3.40616 -37.7339 -4.74774 0.0292877 -180 -0.566579 -90.09 -19.9073 -3.09663 -4.18362 -6.90031e-007 -2.22791 -2.1386e-008 30.9436 -0.770584 0.865527 2.96232e-007 -1.21405 -2.67922e-007 -63.7847 1.05793 -1.39501 -39.8914 -0.00788315 -0.314061 
-492.78 176.225 -565.783 81.2594 -40.8246 83.5965 -180 4.29621e-031 -90 0.888186 2.53544 -0.0422195 1.78086 5.06947 -0.124002 1.78086 5.06991 -0.124015 -4.3313 -9.4891 2.28027 14.0883 -8.59253 0.966456 120.092 75.5343 58.4939 -12.89 -3.84712 0.931789 -167.277 84.4999 48.8109 -177.703 11.5222 12.7716 -1.05894e-005 36.0874 3.7163e-005 -11.9907 -0.886237 0.403104 -8.82918e-008 -1.52522 -3.09395e-007 -2.51319 -0.111389 5.07477 -72.0648 39.0385 39.3397 33.3638 2.10362 14.835 0.588947 0.308273 6.35287 -99.6409 81.413 100.35 -0.018141 2.7792e-005 -0.117316 -0.124139 0.00241114 -0.799297 -79.8382 79.5773 80.5374 -0.000225813 -0.000220905 2.19748e-005 -0.000956276 0.000122919 -2.76182e-005 -66.7416 80.4058 67.2171 -0.000437177 1.59595e-005 -2.75392e-005 -0.000136664 -0.000109272 -5.49374e-005 -6.42159 81.2158 8.01779 -0.000218635 1.68963e-005 0.000211918 0.000901491 -0.000184818 -0.000218867 -59.9282 75.5373 58.5147 13.3213 17.531 1.37284 -167.277 84.4999 48.8109 128.192 -10.2454 -17.2276 7.65371e-006 -1.36975 2.91124e-005 -50.5869 -11.4078 0.480679 -3.03172e-006 -17.7729 1.5447e-006 24.7301 -3.06447 -13.9133 -72.0648 39.0385 39.3397 33.3638 2.10361 14.835 0.588946 0.308273 6.35287 -99.6409 81.413 100.35 -0.0181409 3.01026e-005 -0.117315 -0.124139 0.00241117 -0.799296 -79.8382 79.5773 80.5374 -0.000260597 -0.000218528 2.3803e-005 -0.00095616 0.000123048 -2.70058e-005 -66.7416 80.4058 67.2171 -0.000437073 1.49083e-005 -2.70884e-005 -0.000136524 -0.000109247 -5.43269e-005 -6.42159 81.2158 8.01779 -0.000218491 1.95511e-005 0.000212499 0.000901685 -0.000191283 -0.000218293 0.000811311 0.56661 89.91 -20.2875 1.88071 0.0983772 3.55067e-007 2.85898 -1.0376e-009 33.6288 -2.14536 0.61107 5.64076e-009 -3.28149 3.02837e-008 -67.6329 5.63491 -3.97938 -36.7136 -3.47926 0.113576 -180 -0.566579 -90.09 -19.9122 -3.06602 -4.2938 -6.89991e-007 -2.12095 -2.13845e-008 32.7244 -1.31132 0.46751 2.92421e-007 -2.02864 -2.6803e-007 -66.6236 0.419325 -1.10622 -38.4895 -0.158152 -0.209874 
-492.425 175.609 -565.841 81.4042 -39.9645 83.5889 -180 4.29621e-031 -90 0.811931 2.34865 -0.0368467 1.62743 4.6961 -0.107167 1.62743 4.69654 -0.107179 -6.26635 -9.27639 1.71351 15.1935 -8.43002 1.55032 120.092 75.5343 58.4939 -14.1413 -5.3173 0.448194 -167.277 84.4999 48.8109 -179.988 11.5661 13.2107 -1.0607e-005 36.1095 3.71734e-005 -10.9516 0.145126 0.0867919 -7.98254e-008 0.0428327 -3.09286e-007 -2.4497 -0.0928416 4.34017 -72.0648 39.0385 39.3397 33.3638 2.10362 14.835 0.588947 0.308273 6.35287 -99.6409 81.413 100.35 -0.018141 2.7792e-005 -0.117316 -0.124139 0.00241114 -0.799297 -79.8382 79.5773 80.5374 -0.000225813 -0.000220905 2.19748e-005 -0.000956276 0.000122919 -2.76182e-005 -66.7416 80.4058 67.2171 -0.000437177 1.59595e-005 -2.75392e-005 -0.000136664 -0.000109272 -5.49374e-005 -6.42159 81.2158 8.01779 -0.000218635 1.68963e-005 0.000211918 0.000901491 -0.000184818 -0.000218867 -59.9282 75.5373 58.5147 14.7294 16.4638 0.747527 -167.277 84.4999 48.8109 127.446 -10.0786 -17.4377 7.68544e-006 -1.43217 2.91132e-005 -51.7639 -12.4076 0.490535 -2.98879e-006 -19.2762 1.55834e-006 24.4122 -3.13839 -14.435 -72.0648 39.0385 39.3397 33.3638 2.10361 14.835 0.588946 0.308273 6.35287 -99.6409 81.413 100.35 -0.0181409 3.01026e-005 -0.117315 -0.124139 0.00241117 -0.799296 -79.8382 79.5773 80.5374 -0.000260597 -0.000218528 2.3803e-005 -0.00095616 0.000123048 -2.70058e-005 -66.7416 80.4058 67.2171 -0.000437073 1.49083e-005 -2.70884e-005 -0.000136524 -0.000109247 -5.43269e-005 -6.42159 81.2158 8.01779 -0.000218491 1.95511e-005 0.000212499 0.000901685 -0.000191283 -0.000218293 0.000811311 0.56661 89.91 -21.0512 2.13293 0.521879 3.5507e-007 3.01089 -1.03774e-009 35.5699 -2.21488 1.03856 5.69814e-009 -3.38986 3.02871e-008 -70.4046 6.74914 -4.47426 -35.9548 -1.30833 0.060114 -180 -0.566579 -90.09 -20.4566 -3.38733 -4.71831 -6.90097e-007 -2.40513 -2.13887e-008 34.7691 -1.52681 0.195314 2.90889e-007 -2.35582 -2.68088e-007 -69.7811 0.621487 -1.30522 -36.4458 -0.962013 -0.00793507 
-492.193 175.269 -566.013 81.3433 -39.2453 83.515 -180 4.29621e-031 -90 0.741051 2.25289 -0.0644855 1.48636 4.50432 -0.158336 1.48637 4.50476 -0.158347 -6.68325 -9.44607 1.57875 15.2814 -8.58213 2.15232 120.092 75.5343 58.4939 -14.556 -5.29642 0.51341 -167.277 84.4999 48.8109 178.096 11.5651 14.6096 -1.02754e-005 35.6943 3.69789e-005 -10.279 1.04834 -0.949508 -7.24371e-008 1.41125 -3.0938e-007 -2.31588 -0.0559734 2.76869 -72.0648 39.0385 39.3397 33.3638 2.10362 14.835 0.588947 0.308273 6.35287 -99.6409 81.413 100.35 -0.018141 2.7792e-005 -0.117316 -0.124139 0.00241114 -0.799297 -79.8382 79.5773 80.5374 -0.000225813 -0.000220905 2.19748e-005 -0.000956276 0.000122919 -2.76182e-005 -66.7416 80.4058 67.2171 -0.000437177 1.59595e-005 -2.75392e-005 -0.000136664 -0.000109272 -5.49374e-005 -6.42159 81.2158 8.01779 -0.000218635 1.68963e-005 0.000211918 0.000901491 -0.000184818 -0.000218867 -59.9282 75.5373 58.5147 14.0046 15.3478 0.767267 -167.277 84.4999 48.8109 126.397 -9.81382 -17.8634 7.72931e-006 -1.51849 2.91143e-005 -52.4247 -12.6904 0.495511 -2.97648e-006 -19.7022 1.56244e-006 24.3102 -3.08716 -14.2625 -72.0648 39.0385 39.3397 33.3638 2.10361 14.835 0.588946 0.308273 6.35287 -99.6409 81.413 100.35 -0.0181409 3.01026e-005 -0.117315 -0.124139 0.00241117 -0.799296 -79.8382 79.5773 80.5374 -0.000260597 -0.000218528 2.3803e-005 -0.00095616 0.000123048 -2.70058e-005 -66.7416 80.4058 67.2171 -0.000437073 1.49083e-005 -2.70884e-005 -0.000136524 -0.000109247 -5.43269e-005 -6.42159 81.2158 8.01779 -0.000218491 1.95511e-005 0.000212499 0.000901685 -0.000191283 -0.000218293 0.000811311 0.56661 89.91 -21.682 2.26891 0.819067 3.55071e-007 3.06289 -1.03779e-009 36.6222 -2.04099 1.18999 5.56117e-009 -3.13112 3.02793e-008 -71.6369 7.07447 -4.58782 -35.6442 -0.424731 0.0218431 -180 -0.566579 -90.09 -21.1804 -3.69546 -5.07093 -6.90218e-007 -2.72848 -2.13941e-008 36.1855 -1.52185 -0.273327 2.90911e-007 -2.35113 -2.68088e-007 -70.7775 0.204899 -1.12009 -36.2227 -1.00874 0.0148997 
